<svg width="48" height="48" viewBox="0 0 48 48" fill="none" xmlns="http://www.w3.org/2000/svg">
<path fill-rule="evenodd" clip-rule="evenodd" d="M4.05525 25.4357C3.19525 13.2557 13.2553 3.19574 25.4353 4.05574C36.0153 4.77574 43.9953 14.0157 43.9953 24.6357V26.8157C43.9953 29.6957 42.3553 32.4357 39.6753 33.4957C36.4153 34.7957 32.8553 33.5157 31.0753 31.0757C28.7753 33.4157 25.2753 34.5957 21.5953 33.7357C17.8153 32.8357 14.8353 29.6757 14.1553 25.8557C12.9353 19.0157 18.6753 13.1357 25.4753 14.1157C30.4353 14.8157 33.9953 19.3357 33.9953 24.3557V26.8557C33.9953 28.4357 35.4153 29.9957 36.9953 29.9957C38.5753 29.9957 39.9953 28.4357 39.9953 26.8557V24.6557C39.9953 17.1957 35.1553 10.3557 27.9153 8.51574C16.3153 5.51574 5.51525 16.3357 8.49525 27.9357C10.3553 35.1557 17.1953 39.9957 24.6553 39.9957H31.9953C33.0953 39.9957 33.9953 40.8957 33.9953 41.9957C33.9953 43.0957 33.0953 43.9957 31.9953 43.9957H24.6153C14.0153 43.9957 4.77525 36.0157 4.05525 25.4357ZM17.9952 23.9957C17.9952 27.3157 20.6752 29.9957 23.9952 29.9957C27.3152 29.9957 29.9952 27.3157 29.9952 23.9957C29.9952 20.6757 27.3152 17.9957 23.9952 17.9957C20.6752 17.9957 17.9952 20.6757 17.9952 23.9957Z" fill="#023A78"/>
</svg>
