<svg width="58" height="12" viewBox="0 0 58 12" fill="none" xmlns="http://www.w3.org/2000/svg">
<path d="M0.0117188 11V1.04688H2.95117C3.83073 1.04688 4.61003 1.24284 5.28906 1.63477C5.97266 2.02669 6.5013 2.58268 6.875 3.30273C7.2487 4.02279 7.43555 4.84766 7.43555 5.77734V6.27637C7.43555 7.21973 7.24642 8.04915 6.86816 8.76465C6.49447 9.48014 5.95898 10.0316 5.26172 10.4189C4.56901 10.8063 3.77376 11 2.87598 11H0.0117188ZM1.74121 2.44141V9.61914H2.86914C3.77604 9.61914 4.47103 9.33659 4.9541 8.77148C5.44173 8.20182 5.6901 7.38607 5.69922 6.32422V5.77051C5.69922 4.69043 5.46452 3.86556 4.99512 3.2959C4.52572 2.72624 3.8444 2.44141 2.95117 2.44141H1.74121ZM12.4049 11.1367C11.3521 11.1367 10.4977 10.8063 9.84141 10.1455C9.18971 9.48014 8.86387 8.59603 8.86387 7.49316V7.28809C8.86387 6.5498 9.00514 5.89128 9.28769 5.3125C9.5748 4.72917 9.97585 4.27572 10.4908 3.95215C11.0058 3.62858 11.58 3.4668 12.2135 3.4668C13.2206 3.4668 13.9977 3.78809 14.5445 4.43066C15.096 5.07324 15.3717 5.98242 15.3717 7.1582V7.82812H10.5387C10.5888 8.4388 10.7916 8.92188 11.1471 9.27734C11.5071 9.63281 11.9583 9.81055 12.5006 9.81055C13.2617 9.81055 13.8814 9.50293 14.36 8.8877L15.2555 9.74219C14.9592 10.1842 14.5628 10.5283 14.066 10.7744C13.5738 11.016 13.0201 11.1367 12.4049 11.1367ZM12.2066 4.7998C11.7509 4.7998 11.3818 4.95931 11.0992 5.27832C10.8212 5.59733 10.6435 6.04167 10.566 6.61133H13.7311V6.48828C13.6946 5.93229 13.5465 5.51302 13.2867 5.23047C13.027 4.94336 12.6669 4.7998 12.2066 4.7998ZM21.2365 11C21.1636 10.8587 21.0998 10.6286 21.0451 10.3096C20.5165 10.861 19.8693 11.1367 19.1037 11.1367C18.3609 11.1367 17.7548 10.9248 17.2854 10.501C16.8159 10.0771 16.5812 9.55306 16.5812 8.92871C16.5812 8.1403 16.8729 7.53646 17.4562 7.11719C18.0441 6.69336 18.8827 6.48145 19.9719 6.48145H20.9904V5.99609C20.9904 5.61328 20.8833 5.30794 20.6691 5.08008C20.4549 4.84766 20.1291 4.73145 19.6916 4.73145C19.3133 4.73145 19.0034 4.82715 18.7619 5.01855C18.5204 5.2054 18.3996 5.44466 18.3996 5.73633H16.7385C16.7385 5.33073 16.8729 4.95247 17.1418 4.60156C17.4107 4.24609 17.7753 3.9681 18.2355 3.76758C18.7004 3.56706 19.2176 3.4668 19.7873 3.4668C20.6532 3.4668 21.3436 3.68555 21.8586 4.12305C22.3736 4.55599 22.6379 5.16667 22.6516 5.95508V9.29102C22.6516 9.95638 22.745 10.4873 22.9318 10.8838V11H21.2365ZM19.4113 9.80371C19.7395 9.80371 20.0471 9.72396 20.3342 9.56445C20.6258 9.40495 20.8446 9.19076 20.9904 8.92188V7.52734H20.0949C19.4797 7.52734 19.0171 7.63444 18.7072 7.84863C18.3973 8.06283 18.2424 8.36589 18.2424 8.75781C18.2424 9.07682 18.3472 9.33203 18.5568 9.52344C18.771 9.71029 19.0559 9.80371 19.4113 9.80371ZM24.2303 7.24707C24.2303 6.10775 24.4946 5.19401 25.0232 4.50586C25.5519 3.81315 26.2605 3.4668 27.1492 3.4668C27.9331 3.4668 28.5665 3.74023 29.0496 4.28711V0.5H30.7107V11H29.2068L29.1248 10.2344C28.6281 10.8359 27.965 11.1367 27.1355 11.1367C26.2697 11.1367 25.5678 10.7881 25.0301 10.0908C24.4969 9.39355 24.2303 8.44564 24.2303 7.24707ZM25.8914 7.39062C25.8914 8.14258 26.035 8.73047 26.3221 9.1543C26.6137 9.57357 27.0262 9.7832 27.5594 9.7832C28.2384 9.7832 28.7352 9.48014 29.0496 8.87402V5.71582C28.7443 5.12337 28.2521 4.82715 27.573 4.82715C27.0353 4.82715 26.6206 5.04134 26.3289 5.46973C26.0372 5.89355 25.8914 6.53385 25.8914 7.39062ZM34.3607 11H32.6996V0.5H34.3607V11ZM38.0928 11H36.4316V3.60352H38.0928V11ZM36.3291 1.68262C36.3291 1.42741 36.4089 1.21549 36.5684 1.04688C36.7324 0.878255 36.9648 0.793945 37.2656 0.793945C37.5664 0.793945 37.7988 0.878255 37.9629 1.04688C38.127 1.21549 38.209 1.42741 38.209 1.68262C38.209 1.93327 38.127 2.1429 37.9629 2.31152C37.7988 2.47559 37.5664 2.55762 37.2656 2.55762C36.9648 2.55762 36.7324 2.47559 36.5684 2.31152C36.4089 2.1429 36.3291 1.93327 36.3291 1.68262ZM41.5992 3.60352L41.6471 4.45801C42.1939 3.7972 42.9117 3.4668 43.8004 3.4668C45.3408 3.4668 46.1246 4.34863 46.152 6.1123V11H44.4908V6.20801C44.4908 5.73861 44.3883 5.39225 44.1832 5.16895C43.9827 4.94108 43.6523 4.82715 43.192 4.82715C42.5221 4.82715 42.023 5.13021 41.6949 5.73633V11H40.0338V3.60352H41.5992ZM51.258 11.1367C50.2053 11.1367 49.3508 10.8063 48.6945 10.1455C48.0428 9.48014 47.717 8.59603 47.717 7.49316V7.28809C47.717 6.5498 47.8583 5.89128 48.1408 5.3125C48.4279 4.72917 48.829 4.27572 49.3439 3.95215C49.8589 3.62858 50.4331 3.4668 51.0666 3.4668C52.0738 3.4668 52.8508 3.78809 53.3977 4.43066C53.9491 5.07324 54.2248 5.98242 54.2248 7.1582V7.82812H49.3918C49.4419 8.4388 49.6447 8.92188 50.0002 9.27734C50.3602 9.63281 50.8114 9.81055 51.3537 9.81055C52.1148 9.81055 52.7346 9.50293 53.2131 8.8877L54.1086 9.74219C53.8124 10.1842 53.4159 10.5283 52.9191 10.7744C52.427 11.016 51.8732 11.1367 51.258 11.1367ZM51.0598 4.7998C50.604 4.7998 50.2349 4.95931 49.9523 5.27832C49.6743 5.59733 49.4966 6.04167 49.4191 6.61133H52.5842V6.48828C52.5477 5.93229 52.3996 5.51302 52.1398 5.23047C51.8801 4.94336 51.5201 4.7998 51.0598 4.7998ZM56.6717 9.25C56.9816 9.25 57.2208 9.33887 57.3895 9.5166C57.5581 9.68978 57.6424 9.90853 57.6424 10.1729C57.6424 10.4326 57.5581 10.6491 57.3895 10.8223C57.2208 10.9909 56.9816 11.0752 56.6717 11.0752C56.3755 11.0752 56.1408 10.9909 55.9676 10.8223C55.7944 10.6536 55.7078 10.4372 55.7078 10.1729C55.7078 9.90853 55.7921 9.68978 55.9607 9.5166C56.1294 9.33887 56.3663 9.25 56.6717 9.25ZM56.6717 3.44629C56.9816 3.44629 57.2208 3.53516 57.3895 3.71289C57.5581 3.88607 57.6424 4.10482 57.6424 4.36914C57.6424 4.62891 57.5581 4.84538 57.3895 5.01855C57.2208 5.18717 56.9816 5.27148 56.6717 5.27148C56.3755 5.27148 56.1408 5.18717 55.9676 5.01855C55.7944 4.84993 55.7078 4.63346 55.7078 4.36914C55.7078 4.10482 55.7921 3.88607 55.9607 3.71289C56.1294 3.53516 56.3663 3.44629 56.6717 3.44629Z" fill="#023A78"/>
<path d="M0.0117188 11V1.04688H2.95117C3.83073 1.04688 4.61003 1.24284 5.28906 1.63477C5.97266 2.02669 6.5013 2.58268 6.875 3.30273C7.2487 4.02279 7.43555 4.84766 7.43555 5.77734V6.27637C7.43555 7.21973 7.24642 8.04915 6.86816 8.76465C6.49447 9.48014 5.95898 10.0316 5.26172 10.4189C4.56901 10.8063 3.77376 11 2.87598 11H0.0117188ZM1.74121 2.44141V9.61914H2.86914C3.77604 9.61914 4.47103 9.33659 4.9541 8.77148C5.44173 8.20182 5.6901 7.38607 5.69922 6.32422V5.77051C5.69922 4.69043 5.46452 3.86556 4.99512 3.2959C4.52572 2.72624 3.8444 2.44141 2.95117 2.44141H1.74121ZM12.4049 11.1367C11.3521 11.1367 10.4977 10.8063 9.84141 10.1455C9.18971 9.48014 8.86387 8.59603 8.86387 7.49316V7.28809C8.86387 6.5498 9.00514 5.89128 9.28769 5.3125C9.5748 4.72917 9.97585 4.27572 10.4908 3.95215C11.0058 3.62858 11.58 3.4668 12.2135 3.4668C13.2206 3.4668 13.9977 3.78809 14.5445 4.43066C15.096 5.07324 15.3717 5.98242 15.3717 7.1582V7.82812H10.5387C10.5888 8.4388 10.7916 8.92188 11.1471 9.27734C11.5071 9.63281 11.9583 9.81055 12.5006 9.81055C13.2617 9.81055 13.8814 9.50293 14.36 8.8877L15.2555 9.74219C14.9592 10.1842 14.5628 10.5283 14.066 10.7744C13.5738 11.016 13.0201 11.1367 12.4049 11.1367ZM12.2066 4.7998C11.7509 4.7998 11.3818 4.95931 11.0992 5.27832C10.8212 5.59733 10.6435 6.04167 10.566 6.61133H13.7311V6.48828C13.6946 5.93229 13.5465 5.51302 13.2867 5.23047C13.027 4.94336 12.6669 4.7998 12.2066 4.7998ZM21.2365 11C21.1636 10.8587 21.0998 10.6286 21.0451 10.3096C20.5165 10.861 19.8693 11.1367 19.1037 11.1367C18.3609 11.1367 17.7548 10.9248 17.2854 10.501C16.8159 10.0771 16.5812 9.55306 16.5812 8.92871C16.5812 8.1403 16.8729 7.53646 17.4562 7.11719C18.0441 6.69336 18.8827 6.48145 19.9719 6.48145H20.9904V5.99609C20.9904 5.61328 20.8833 5.30794 20.6691 5.08008C20.4549 4.84766 20.1291 4.73145 19.6916 4.73145C19.3133 4.73145 19.0034 4.82715 18.7619 5.01855C18.5204 5.2054 18.3996 5.44466 18.3996 5.73633H16.7385C16.7385 5.33073 16.8729 4.95247 17.1418 4.60156C17.4107 4.24609 17.7753 3.9681 18.2355 3.76758C18.7004 3.56706 19.2176 3.4668 19.7873 3.4668C20.6532 3.4668 21.3436 3.68555 21.8586 4.12305C22.3736 4.55599 22.6379 5.16667 22.6516 5.95508V9.29102C22.6516 9.95638 22.745 10.4873 22.9318 10.8838V11H21.2365ZM19.4113 9.80371C19.7395 9.80371 20.0471 9.72396 20.3342 9.56445C20.6258 9.40495 20.8446 9.19076 20.9904 8.92188V7.52734H20.0949C19.4797 7.52734 19.0171 7.63444 18.7072 7.84863C18.3973 8.06283 18.2424 8.36589 18.2424 8.75781C18.2424 9.07682 18.3472 9.33203 18.5568 9.52344C18.771 9.71029 19.0559 9.80371 19.4113 9.80371ZM24.2303 7.24707C24.2303 6.10775 24.4946 5.19401 25.0232 4.50586C25.5519 3.81315 26.2605 3.4668 27.1492 3.4668C27.9331 3.4668 28.5665 3.74023 29.0496 4.28711V0.5H30.7107V11H29.2068L29.1248 10.2344C28.6281 10.8359 27.965 11.1367 27.1355 11.1367C26.2697 11.1367 25.5678 10.7881 25.0301 10.0908C24.4969 9.39355 24.2303 8.44564 24.2303 7.24707ZM25.8914 7.39062C25.8914 8.14258 26.035 8.73047 26.3221 9.1543C26.6137 9.57357 27.0262 9.7832 27.5594 9.7832C28.2384 9.7832 28.7352 9.48014 29.0496 8.87402V5.71582C28.7443 5.12337 28.2521 4.82715 27.573 4.82715C27.0353 4.82715 26.6206 5.04134 26.3289 5.46973C26.0372 5.89355 25.8914 6.53385 25.8914 7.39062ZM34.3607 11H32.6996V0.5H34.3607V11ZM38.0928 11H36.4316V3.60352H38.0928V11ZM36.3291 1.68262C36.3291 1.42741 36.4089 1.21549 36.5684 1.04688C36.7324 0.878255 36.9648 0.793945 37.2656 0.793945C37.5664 0.793945 37.7988 0.878255 37.9629 1.04688C38.127 1.21549 38.209 1.42741 38.209 1.68262C38.209 1.93327 38.127 2.1429 37.9629 2.31152C37.7988 2.47559 37.5664 2.55762 37.2656 2.55762C36.9648 2.55762 36.7324 2.47559 36.5684 2.31152C36.4089 2.1429 36.3291 1.93327 36.3291 1.68262ZM41.5992 3.60352L41.6471 4.45801C42.1939 3.7972 42.9117 3.4668 43.8004 3.4668C45.3408 3.4668 46.1246 4.34863 46.152 6.1123V11H44.4908V6.20801C44.4908 5.73861 44.3883 5.39225 44.1832 5.16895C43.9827 4.94108 43.6523 4.82715 43.192 4.82715C42.5221 4.82715 42.023 5.13021 41.6949 5.73633V11H40.0338V3.60352H41.5992ZM51.258 11.1367C50.2053 11.1367 49.3508 10.8063 48.6945 10.1455C48.0428 9.48014 47.717 8.59603 47.717 7.49316V7.28809C47.717 6.5498 47.8583 5.89128 48.1408 5.3125C48.4279 4.72917 48.829 4.27572 49.3439 3.95215C49.8589 3.62858 50.4331 3.4668 51.0666 3.4668C52.0738 3.4668 52.8508 3.78809 53.3977 4.43066C53.9491 5.07324 54.2248 5.98242 54.2248 7.1582V7.82812H49.3918C49.4419 8.4388 49.6447 8.92188 50.0002 9.27734C50.3602 9.63281 50.8114 9.81055 51.3537 9.81055C52.1148 9.81055 52.7346 9.50293 53.2131 8.8877L54.1086 9.74219C53.8124 10.1842 53.4159 10.5283 52.9191 10.7744C52.427 11.016 51.8732 11.1367 51.258 11.1367ZM51.0598 4.7998C50.604 4.7998 50.2349 4.95931 49.9523 5.27832C49.6743 5.59733 49.4966 6.04167 49.4191 6.61133H52.5842V6.48828C52.5477 5.93229 52.3996 5.51302 52.1398 5.23047C51.8801 4.94336 51.5201 4.7998 51.0598 4.7998ZM56.6717 9.25C56.9816 9.25 57.2208 9.33887 57.3895 9.5166C57.5581 9.68978 57.6424 9.90853 57.6424 10.1729C57.6424 10.4326 57.5581 10.6491 57.3895 10.8223C57.2208 10.9909 56.9816 11.0752 56.6717 11.0752C56.3755 11.0752 56.1408 10.9909 55.9676 10.8223C55.7944 10.6536 55.7078 10.4372 55.7078 10.1729C55.7078 9.90853 55.7921 9.68978 55.9607 9.5166C56.1294 9.33887 56.3663 9.25 56.6717 9.25ZM56.6717 3.44629C56.9816 3.44629 57.2208 3.53516 57.3895 3.71289C57.5581 3.88607 57.6424 4.10482 57.6424 4.36914C57.6424 4.62891 57.5581 4.84538 57.3895 5.01855C57.2208 5.18717 56.9816 5.27148 56.6717 5.27148C56.3755 5.27148 56.1408 5.18717 55.9676 5.01855C55.7944 4.84993 55.7078 4.63346 55.7078 4.36914C55.7078 4.10482 55.7921 3.88607 55.9607 3.71289C56.1294 3.53516 56.3663 3.44629 56.6717 3.44629Z" fill="url(#paint0_linear)" fill-opacity="0.6"/>
<defs>
<linearGradient id="paint0_linear" x1="29" y1="-2" x2="29" y2="14" gradientUnits="userSpaceOnUse">
<stop stop-color="white"/>
<stop offset="1" stop-color="white" stop-opacity="0"/>
</linearGradient>
</defs>
</svg>
