<svg width="16" height="11" viewBox="0 0 16 11" fill="none" xmlns="http://www.w3.org/2000/svg">
<path d="M1.83691 10H0.114258V0.046875H1.83691V10ZM4.11289 10V0.046875H7.05234C7.9319 0.046875 8.7112 0.242839 9.39023 0.634766C10.0738 1.02669 10.6025 1.58268 10.9762 2.30273C11.3499 3.02279 11.5367 3.84766 11.5367 4.77734V5.27637C11.5367 6.21973 11.3476 7.04915 10.9693 7.76465C10.5956 8.48014 10.0602 9.03158 9.36289 9.41895C8.67018 9.80632 7.87493 10 6.97715 10H4.11289ZM5.84238 1.44141V8.61914H6.97031C7.87721 8.61914 8.5722 8.33659 9.05527 7.77148C9.5429 7.20182 9.79128 6.38607 9.80039 5.32422V4.77051C9.80039 3.69043 9.56569 2.86556 9.09629 2.2959C8.62689 1.72624 7.94557 1.44141 7.05234 1.44141H5.84238ZM14.2502 8.25C14.5601 8.25 14.7993 8.33887 14.968 8.5166C15.1366 8.68978 15.2209 8.90853 15.2209 9.17285C15.2209 9.43262 15.1366 9.64909 14.968 9.82227C14.7993 9.99089 14.5601 10.0752 14.2502 10.0752C13.954 10.0752 13.7193 9.99089 13.5461 9.82227C13.3729 9.65365 13.2863 9.43717 13.2863 9.17285C13.2863 8.90853 13.3706 8.68978 13.5393 8.5166C13.7079 8.33887 13.9449 8.25 14.2502 8.25ZM14.2502 2.44629C14.5601 2.44629 14.7993 2.53516 14.968 2.71289C15.1366 2.88607 15.2209 3.10482 15.2209 3.36914C15.2209 3.62891 15.1366 3.84538 14.968 4.01855C14.7993 4.18717 14.5601 4.27148 14.2502 4.27148C13.954 4.27148 13.7193 4.18717 13.5461 4.01855C13.3729 3.84993 13.2863 3.63346 13.2863 3.36914C13.2863 3.10482 13.3706 2.88607 13.5393 2.71289C13.7079 2.53516 13.9449 2.44629 14.2502 2.44629Z" fill="#023A78"/>
<path d="M1.83691 10H0.114258V0.046875H1.83691V10ZM4.11289 10V0.046875H7.05234C7.9319 0.046875 8.7112 0.242839 9.39023 0.634766C10.0738 1.02669 10.6025 1.58268 10.9762 2.30273C11.3499 3.02279 11.5367 3.84766 11.5367 4.77734V5.27637C11.5367 6.21973 11.3476 7.04915 10.9693 7.76465C10.5956 8.48014 10.0602 9.03158 9.36289 9.41895C8.67018 9.80632 7.87493 10 6.97715 10H4.11289ZM5.84238 1.44141V8.61914H6.97031C7.87721 8.61914 8.5722 8.33659 9.05527 7.77148C9.5429 7.20182 9.79128 6.38607 9.80039 5.32422V4.77051C9.80039 3.69043 9.56569 2.86556 9.09629 2.2959C8.62689 1.72624 7.94557 1.44141 7.05234 1.44141H5.84238ZM14.2502 8.25C14.5601 8.25 14.7993 8.33887 14.968 8.5166C15.1366 8.68978 15.2209 8.90853 15.2209 9.17285C15.2209 9.43262 15.1366 9.64909 14.968 9.82227C14.7993 9.99089 14.5601 10.0752 14.2502 10.0752C13.954 10.0752 13.7193 9.99089 13.5461 9.82227C13.3729 9.65365 13.2863 9.43717 13.2863 9.17285C13.2863 8.90853 13.3706 8.68978 13.5393 8.5166C13.7079 8.33887 13.9449 8.25 14.2502 8.25ZM14.2502 2.44629C14.5601 2.44629 14.7993 2.53516 14.968 2.71289C15.1366 2.88607 15.2209 3.10482 15.2209 3.36914C15.2209 3.62891 15.1366 3.84538 14.968 4.01855C14.7993 4.18717 14.5601 4.27148 14.2502 4.27148C13.954 4.27148 13.7193 4.18717 13.5461 4.01855C13.3729 3.84993 13.2863 3.63346 13.2863 3.36914C13.2863 3.10482 13.3706 2.88607 13.5393 2.71289C13.7079 2.53516 13.9449 2.44629 14.2502 2.44629Z" fill="url(#paint0_linear)" fill-opacity="0.6"/>
<defs>
<linearGradient id="paint0_linear" x1="8" y1="-3" x2="8" y2="13" gradientUnits="userSpaceOnUse">
<stop stop-color="white"/>
<stop offset="1" stop-color="white" stop-opacity="0"/>
</linearGradient>
</defs>
</svg>
