<svg width="53" height="23" viewBox="0 0 53 23" fill="none" xmlns="http://www.w3.org/2000/svg">
<path d="M0.71 0.499998H4.43V14.15L9.08 8H13.28L7.82 15.2L13.4 23H9.2L4.43 16.34V23H0.71V0.499998ZM14.4005 8H17.8805L17.9705 9.59C18.4105 9.09 18.9705 8.65 19.6505 8.27C20.3505 7.89 21.0805 7.7 21.8405 7.7C22.0805 7.7 22.3005 7.72 22.5005 7.76L22.2305 11.42C21.8505 11.32 21.4205 11.27 20.9405 11.27C20.3205 11.27 19.7505 11.42 19.2305 11.72C18.7105 12 18.3405 12.35 18.1205 12.77V23H14.4005V8ZM40.2329 7.76C42.2329 7.76 43.7129 8.37 44.6729 9.59C45.6529 10.79 46.1429 12.48 46.1429 14.66V23H42.4229V14.93C42.4229 13.51 42.2029 12.47 41.7629 11.81C41.3229 11.15 40.6029 10.82 39.6029 10.82C38.6229 10.82 37.8829 11.16 37.3829 11.84C36.8829 12.5 36.6329 13.44 36.6329 14.66V23H32.9129V14.93C32.9129 13.51 32.6829 12.47 32.2229 11.81C31.7629 11.15 31.0329 10.82 30.0329 10.82C28.8529 10.82 27.8829 11.25 27.1229 12.11V23H23.4029V8H26.5829L26.7029 9.2C28.0629 8.24 29.5329 7.76 31.1129 7.76C33.0329 7.76 34.4629 8.45 35.4029 9.83C35.9229 9.17 36.6029 8.66 37.4429 8.3C38.2829 7.94 39.2129 7.76 40.2329 7.76Z" fill="#023A78"/>
<path d="M48.2171 18.92H52.1171V23H48.2171V18.92Z" fill="#0DC7FD"/>
</svg>
