<svg width="67" height="67" viewBox="0 0 67 67" fill="none" xmlns="http://www.w3.org/2000/svg">
<path fill-rule="evenodd" clip-rule="evenodd" d="M13.9585 25.8648C13.9585 15.061 22.6964 6.32312 33.5002 6.32312C44.3039 6.32312 53.0418 15.061 53.0418 25.8648C53.0418 37.506 40.7027 53.5581 35.6497 59.6719C34.5331 61.0119 32.4952 61.0119 31.3785 59.6719C26.2977 53.5581 13.9585 37.506 13.9585 25.8648ZM26.521 25.8648C26.521 29.7173 29.6477 32.844 33.5002 32.844C37.3527 32.844 40.4793 29.7173 40.4793 25.8648C40.4793 22.0123 37.3527 18.8856 33.5002 18.8856C29.6477 18.8856 26.521 22.0123 26.521 25.8648Z" fill="#023A78"/>
</svg>
