<svg width="54" height="54" viewBox="0 0 54 54" fill="none" xmlns="http://www.w3.org/2000/svg">
<path fill-rule="evenodd" clip-rule="evenodd" d="M29.9706 0H50.9962C52.6482 0 53.9999 1.35165 53.9999 3.00366V18.022C53.9999 19.674 52.6482 21.0256 50.9962 21.0256H35.9779L26.9669 30.0366V3.00366C26.9669 1.35165 28.3186 0 29.9706 0ZM41.0542 35.9538L48.6835 36.8249C51.7172 37.1854 54 39.7385 53.97 42.7722V47.9685C53.97 51.3626 51.1465 54.1861 47.7524 53.9758C22.1312 52.3839 1.61616 31.8989 0.0242175 6.24764C-0.186039 2.85351 2.6374 0.0300659 6.03154 0.0300659H11.2279C14.2916 0.0300659 16.8447 2.31285 17.2052 5.34655L18.0762 12.9158C18.2865 14.748 17.6557 16.5502 16.3641 17.8418L10.8074 23.3985C15.1326 31.9289 22.1011 38.8674 30.6015 43.1927L36.1282 37.6659C37.4198 36.3744 39.222 35.7436 41.0542 35.9538Z" fill="#023A78"/>
</svg>
