<svg width="48" height="14" viewBox="0 0 48 14" fill="none" xmlns="http://www.w3.org/2000/svg">
<path d="M0.0117188 11V1.04688H3.42285C4.5485 1.04688 5.40527 1.27246 5.99316 1.72363C6.58105 2.1748 6.875 2.84701 6.875 3.74023C6.875 4.19596 6.75195 4.60612 6.50586 4.9707C6.25977 5.33529 5.89974 5.61784 5.42578 5.81836C5.96354 5.96419 6.37826 6.23991 6.66992 6.64551C6.96615 7.04655 7.11426 7.52962 7.11426 8.09473C7.11426 9.02897 6.81348 9.74674 6.21191 10.248C5.61491 10.7493 4.75814 11 3.6416 11H0.0117188ZM1.74121 6.50879V9.61914H3.66211C4.20443 9.61914 4.62826 9.4847 4.93359 9.21582C5.23893 8.94694 5.3916 8.57324 5.3916 8.09473C5.3916 7.06022 4.86296 6.53158 3.80566 6.50879H1.74121ZM1.74121 5.2373H3.43652C3.97428 5.2373 4.39355 5.11654 4.69434 4.875C4.99967 4.62891 5.15234 4.28255 5.15234 3.83594C5.15234 3.34375 5.01107 2.98828 4.72852 2.76953C4.45052 2.55078 4.0153 2.44141 3.42285 2.44141H1.74121V5.2373ZM13.3141 10.2754C12.8264 10.8496 12.1337 11.1367 11.2359 11.1367C10.4339 11.1367 9.82546 10.902 9.41074 10.4326C9.00059 9.96322 8.79551 9.28418 8.79551 8.39551V3.60352H10.4566V8.375C10.4566 9.3138 10.8463 9.7832 11.6256 9.7832C12.4322 9.7832 12.9768 9.49382 13.2594 8.91504V3.60352H14.9205V11H13.3551L13.3141 10.2754ZM16.4514 7.24707C16.4514 6.10775 16.7157 5.19401 17.2443 4.50586C17.773 3.81315 18.4816 3.4668 19.3703 3.4668C20.1542 3.4668 20.7876 3.74023 21.2707 4.28711V0.5H22.9318V11H21.4279L21.3459 10.2344C20.8492 10.8359 20.1861 11.1367 19.3566 11.1367C18.4908 11.1367 17.7889 10.7881 17.2512 10.0908C16.718 9.39355 16.4514 8.44564 16.4514 7.24707ZM18.1125 7.39062C18.1125 8.14258 18.2561 8.73047 18.5432 9.1543C18.8348 9.57357 19.2473 9.7832 19.7805 9.7832C20.4595 9.7832 20.9562 9.48014 21.2707 8.87402V5.71582C20.9654 5.12337 20.4732 4.82715 19.7941 4.82715C19.2564 4.82715 18.8417 5.04134 18.55 5.46973C18.2583 5.89355 18.1125 6.53385 18.1125 7.39062ZM24.5242 7.24707C24.5242 6.09863 24.7931 5.18262 25.3309 4.49902C25.8732 3.81087 26.591 3.4668 27.4842 3.4668C28.3273 3.4668 28.9904 3.76074 29.4734 4.34863L29.5486 3.60352H31.0457V10.7744C31.0457 11.7451 30.7426 12.5107 30.1365 13.0713C29.535 13.6318 28.7215 13.9121 27.6961 13.9121C27.1538 13.9121 26.6229 13.7982 26.1033 13.5703C25.5883 13.347 25.1964 13.0531 24.9275 12.6885L25.7137 11.6904C26.2241 12.2965 26.853 12.5996 27.6004 12.5996C28.1518 12.5996 28.587 12.4492 28.9061 12.1484C29.2251 11.8522 29.3846 11.4147 29.3846 10.8359V10.3369C28.9061 10.8701 28.268 11.1367 27.4705 11.1367C26.6046 11.1367 25.896 10.7926 25.3445 10.1045C24.7977 9.41634 24.5242 8.46387 24.5242 7.24707ZM26.1785 7.39062C26.1785 8.13346 26.3289 8.71908 26.6297 9.14746C26.935 9.57129 27.3566 9.7832 27.8943 9.7832C28.5643 9.7832 29.061 9.49609 29.3846 8.92188V5.66797C29.0701 5.10742 28.5779 4.82715 27.908 4.82715C27.3611 4.82715 26.935 5.04362 26.6297 5.47656C26.3289 5.90951 26.1785 6.54753 26.1785 7.39062ZM36.1654 11.1367C35.1127 11.1367 34.2582 10.8063 33.602 10.1455C32.9503 9.48014 32.6244 8.59603 32.6244 7.49316V7.28809C32.6244 6.5498 32.7657 5.89128 33.0482 5.3125C33.3354 4.72917 33.7364 4.27572 34.2514 3.95215C34.7663 3.62858 35.3406 3.4668 35.974 3.4668C36.9812 3.4668 37.7582 3.78809 38.3051 4.43066C38.8565 5.07324 39.1322 5.98242 39.1322 7.1582V7.82812H34.2992C34.3493 8.4388 34.5521 8.92188 34.9076 9.27734C35.2676 9.63281 35.7188 9.81055 36.2611 9.81055C37.0222 9.81055 37.642 9.50293 38.1205 8.8877L39.016 9.74219C38.7198 10.1842 38.3233 10.5283 37.8266 10.7744C37.3344 11.016 36.7807 11.1367 36.1654 11.1367ZM35.9672 4.7998C35.5115 4.7998 35.1423 4.95931 34.8598 5.27832C34.5818 5.59733 34.404 6.04167 34.3266 6.61133H37.4916V6.48828C37.4551 5.93229 37.307 5.51302 37.0473 5.23047C36.7875 4.94336 36.4275 4.7998 35.9672 4.7998ZM42.6592 1.80566V3.60352H43.9648V4.83398H42.6592V8.96289C42.6592 9.24544 42.7139 9.45052 42.8232 9.57812C42.9372 9.70117 43.1377 9.7627 43.4248 9.7627C43.6162 9.7627 43.8099 9.73991 44.0059 9.69434V10.9795C43.6276 11.0843 43.263 11.1367 42.9121 11.1367C41.6361 11.1367 40.998 10.4326 40.998 9.02441V4.83398H39.7812V3.60352H40.998V1.80566H42.6592ZM46.3912 9.25C46.7011 9.25 46.9404 9.33887 47.109 9.5166C47.2776 9.68978 47.3619 9.90853 47.3619 10.1729C47.3619 10.4326 47.2776 10.6491 47.109 10.8223C46.9404 10.9909 46.7011 11.0752 46.3912 11.0752C46.095 11.0752 45.8603 10.9909 45.6871 10.8223C45.5139 10.6536 45.4273 10.4372 45.4273 10.1729C45.4273 9.90853 45.5117 9.68978 45.6803 9.5166C45.8489 9.33887 46.0859 9.25 46.3912 9.25ZM46.3912 3.44629C46.7011 3.44629 46.9404 3.53516 47.109 3.71289C47.2776 3.88607 47.3619 4.10482 47.3619 4.36914C47.3619 4.62891 47.2776 4.84538 47.109 5.01855C46.9404 5.18717 46.7011 5.27148 46.3912 5.27148C46.095 5.27148 45.8603 5.18717 45.6871 5.01855C45.5139 4.84993 45.4273 4.63346 45.4273 4.36914C45.4273 4.10482 45.5117 3.88607 45.6803 3.71289C45.8489 3.53516 46.0859 3.44629 46.3912 3.44629Z" fill="#023A78"/>
<path d="M0.0117188 11V1.04688H3.42285C4.5485 1.04688 5.40527 1.27246 5.99316 1.72363C6.58105 2.1748 6.875 2.84701 6.875 3.74023C6.875 4.19596 6.75195 4.60612 6.50586 4.9707C6.25977 5.33529 5.89974 5.61784 5.42578 5.81836C5.96354 5.96419 6.37826 6.23991 6.66992 6.64551C6.96615 7.04655 7.11426 7.52962 7.11426 8.09473C7.11426 9.02897 6.81348 9.74674 6.21191 10.248C5.61491 10.7493 4.75814 11 3.6416 11H0.0117188ZM1.74121 6.50879V9.61914H3.66211C4.20443 9.61914 4.62826 9.4847 4.93359 9.21582C5.23893 8.94694 5.3916 8.57324 5.3916 8.09473C5.3916 7.06022 4.86296 6.53158 3.80566 6.50879H1.74121ZM1.74121 5.2373H3.43652C3.97428 5.2373 4.39355 5.11654 4.69434 4.875C4.99967 4.62891 5.15234 4.28255 5.15234 3.83594C5.15234 3.34375 5.01107 2.98828 4.72852 2.76953C4.45052 2.55078 4.0153 2.44141 3.42285 2.44141H1.74121V5.2373ZM13.3141 10.2754C12.8264 10.8496 12.1337 11.1367 11.2359 11.1367C10.4339 11.1367 9.82546 10.902 9.41074 10.4326C9.00059 9.96322 8.79551 9.28418 8.79551 8.39551V3.60352H10.4566V8.375C10.4566 9.3138 10.8463 9.7832 11.6256 9.7832C12.4322 9.7832 12.9768 9.49382 13.2594 8.91504V3.60352H14.9205V11H13.3551L13.3141 10.2754ZM16.4514 7.24707C16.4514 6.10775 16.7157 5.19401 17.2443 4.50586C17.773 3.81315 18.4816 3.4668 19.3703 3.4668C20.1542 3.4668 20.7876 3.74023 21.2707 4.28711V0.5H22.9318V11H21.4279L21.3459 10.2344C20.8492 10.8359 20.1861 11.1367 19.3566 11.1367C18.4908 11.1367 17.7889 10.7881 17.2512 10.0908C16.718 9.39355 16.4514 8.44564 16.4514 7.24707ZM18.1125 7.39062C18.1125 8.14258 18.2561 8.73047 18.5432 9.1543C18.8348 9.57357 19.2473 9.7832 19.7805 9.7832C20.4595 9.7832 20.9562 9.48014 21.2707 8.87402V5.71582C20.9654 5.12337 20.4732 4.82715 19.7941 4.82715C19.2564 4.82715 18.8417 5.04134 18.55 5.46973C18.2583 5.89355 18.1125 6.53385 18.1125 7.39062ZM24.5242 7.24707C24.5242 6.09863 24.7931 5.18262 25.3309 4.49902C25.8732 3.81087 26.591 3.4668 27.4842 3.4668C28.3273 3.4668 28.9904 3.76074 29.4734 4.34863L29.5486 3.60352H31.0457V10.7744C31.0457 11.7451 30.7426 12.5107 30.1365 13.0713C29.535 13.6318 28.7215 13.9121 27.6961 13.9121C27.1538 13.9121 26.6229 13.7982 26.1033 13.5703C25.5883 13.347 25.1964 13.0531 24.9275 12.6885L25.7137 11.6904C26.2241 12.2965 26.853 12.5996 27.6004 12.5996C28.1518 12.5996 28.587 12.4492 28.9061 12.1484C29.2251 11.8522 29.3846 11.4147 29.3846 10.8359V10.3369C28.9061 10.8701 28.268 11.1367 27.4705 11.1367C26.6046 11.1367 25.896 10.7926 25.3445 10.1045C24.7977 9.41634 24.5242 8.46387 24.5242 7.24707ZM26.1785 7.39062C26.1785 8.13346 26.3289 8.71908 26.6297 9.14746C26.935 9.57129 27.3566 9.7832 27.8943 9.7832C28.5643 9.7832 29.061 9.49609 29.3846 8.92188V5.66797C29.0701 5.10742 28.5779 4.82715 27.908 4.82715C27.3611 4.82715 26.935 5.04362 26.6297 5.47656C26.3289 5.90951 26.1785 6.54753 26.1785 7.39062ZM36.1654 11.1367C35.1127 11.1367 34.2582 10.8063 33.602 10.1455C32.9503 9.48014 32.6244 8.59603 32.6244 7.49316V7.28809C32.6244 6.5498 32.7657 5.89128 33.0482 5.3125C33.3354 4.72917 33.7364 4.27572 34.2514 3.95215C34.7663 3.62858 35.3406 3.4668 35.974 3.4668C36.9812 3.4668 37.7582 3.78809 38.3051 4.43066C38.8565 5.07324 39.1322 5.98242 39.1322 7.1582V7.82812H34.2992C34.3493 8.4388 34.5521 8.92188 34.9076 9.27734C35.2676 9.63281 35.7188 9.81055 36.2611 9.81055C37.0222 9.81055 37.642 9.50293 38.1205 8.8877L39.016 9.74219C38.7198 10.1842 38.3233 10.5283 37.8266 10.7744C37.3344 11.016 36.7807 11.1367 36.1654 11.1367ZM35.9672 4.7998C35.5115 4.7998 35.1423 4.95931 34.8598 5.27832C34.5818 5.59733 34.404 6.04167 34.3266 6.61133H37.4916V6.48828C37.4551 5.93229 37.307 5.51302 37.0473 5.23047C36.7875 4.94336 36.4275 4.7998 35.9672 4.7998ZM42.6592 1.80566V3.60352H43.9648V4.83398H42.6592V8.96289C42.6592 9.24544 42.7139 9.45052 42.8232 9.57812C42.9372 9.70117 43.1377 9.7627 43.4248 9.7627C43.6162 9.7627 43.8099 9.73991 44.0059 9.69434V10.9795C43.6276 11.0843 43.263 11.1367 42.9121 11.1367C41.6361 11.1367 40.998 10.4326 40.998 9.02441V4.83398H39.7812V3.60352H40.998V1.80566H42.6592ZM46.3912 9.25C46.7011 9.25 46.9404 9.33887 47.109 9.5166C47.2776 9.68978 47.3619 9.90853 47.3619 10.1729C47.3619 10.4326 47.2776 10.6491 47.109 10.8223C46.9404 10.9909 46.7011 11.0752 46.3912 11.0752C46.095 11.0752 45.8603 10.9909 45.6871 10.8223C45.5139 10.6536 45.4273 10.4372 45.4273 10.1729C45.4273 9.90853 45.5117 9.68978 45.6803 9.5166C45.8489 9.33887 46.0859 9.25 46.3912 9.25ZM46.3912 3.44629C46.7011 3.44629 46.9404 3.53516 47.109 3.71289C47.2776 3.88607 47.3619 4.10482 47.3619 4.36914C47.3619 4.62891 47.2776 4.84538 47.109 5.01855C46.9404 5.18717 46.7011 5.27148 46.3912 5.27148C46.095 5.27148 45.8603 5.18717 45.6871 5.01855C45.5139 4.84993 45.4273 4.63346 45.4273 4.36914C45.4273 4.10482 45.5117 3.88607 45.6803 3.71289C45.8489 3.53516 46.0859 3.44629 46.3912 3.44629Z" fill="url(#paint0_linear)" fill-opacity="0.6"/>
<defs>
<linearGradient id="paint0_linear" x1="24" y1="-2" x2="24" y2="14" gradientUnits="userSpaceOnUse">
<stop stop-color="white"/>
<stop offset="1" stop-color="white" stop-opacity="0"/>
</linearGradient>
</defs>
</svg>
