<svg width="76" height="14" viewBox="0 0 76 14" fill="none" xmlns="http://www.w3.org/2000/svg">
<path d="M0.0117188 11V1.04688H2.95117C3.83073 1.04688 4.61003 1.24284 5.28906 1.63477C5.97266 2.02669 6.5013 2.58268 6.875 3.30273C7.2487 4.02279 7.43555 4.84766 7.43555 5.77734V6.27637C7.43555 7.21973 7.24642 8.04915 6.86816 8.76465C6.49447 9.48014 5.95898 10.0316 5.26172 10.4189C4.56901 10.8063 3.77376 11 2.87598 11H0.0117188ZM1.74121 2.44141V9.61914H2.86914C3.77604 9.61914 4.47103 9.33659 4.9541 8.77148C5.44173 8.20182 5.6901 7.38607 5.69922 6.32422V5.77051C5.69922 4.69043 5.46452 3.86556 4.99512 3.2959C4.52572 2.72624 3.8444 2.44141 2.95117 2.44141H1.74121ZM12.4049 11.1367C11.3521 11.1367 10.4977 10.8063 9.84141 10.1455C9.18971 9.48014 8.86387 8.59603 8.86387 7.49316V7.28809C8.86387 6.5498 9.00514 5.89128 9.28769 5.3125C9.5748 4.72917 9.97585 4.27572 10.4908 3.95215C11.0058 3.62858 11.58 3.4668 12.2135 3.4668C13.2206 3.4668 13.9977 3.78809 14.5445 4.43066C15.096 5.07324 15.3717 5.98242 15.3717 7.1582V7.82812H10.5387C10.5888 8.4388 10.7916 8.92188 11.1471 9.27734C11.5071 9.63281 11.9583 9.81055 12.5006 9.81055C13.2617 9.81055 13.8814 9.50293 14.36 8.8877L15.2555 9.74219C14.9592 10.1842 14.5628 10.5283 14.066 10.7744C13.5738 11.016 13.0201 11.1367 12.4049 11.1367ZM12.2066 4.7998C11.7509 4.7998 11.3818 4.95931 11.0992 5.27832C10.8212 5.59733 10.6435 6.04167 10.566 6.61133H13.7311V6.48828C13.6946 5.93229 13.5465 5.51302 13.2867 5.23047C13.027 4.94336 12.6669 4.7998 12.2066 4.7998ZM20.9631 8.99023C20.9631 8.69401 20.84 8.46842 20.5939 8.31348C20.3524 8.15853 19.9491 8.02181 19.384 7.90332C18.8189 7.78483 18.3472 7.63444 17.9689 7.45215C17.1395 7.05111 16.7248 6.47005 16.7248 5.70898C16.7248 5.07096 16.9937 4.53776 17.5314 4.10938C18.0692 3.68099 18.7528 3.4668 19.5822 3.4668C20.4663 3.4668 21.1796 3.68555 21.7219 4.12305C22.2687 4.56055 22.5422 5.12793 22.5422 5.8252H20.8811C20.8811 5.50618 20.7626 5.24186 20.5256 5.03223C20.2886 4.81803 19.9742 4.71094 19.5822 4.71094C19.2176 4.71094 18.9191 4.79525 18.6867 4.96387C18.4589 5.13249 18.3449 5.35807 18.3449 5.64062C18.3449 5.89583 18.452 6.09408 18.6662 6.23535C18.8804 6.37663 19.3133 6.52018 19.965 6.66602C20.6167 6.80729 21.1271 6.97819 21.4963 7.17871C21.87 7.37467 22.1457 7.61165 22.3234 7.88965C22.5057 8.16764 22.5969 8.50488 22.5969 8.90137C22.5969 9.56673 22.3212 10.1068 21.7697 10.5215C21.2183 10.9316 20.496 11.1367 19.6027 11.1367C18.9966 11.1367 18.4566 11.0273 17.9826 10.8086C17.5087 10.5898 17.1395 10.2891 16.8752 9.90625C16.6109 9.52344 16.4787 9.111 16.4787 8.66895H18.092C18.1148 9.06087 18.2629 9.36393 18.5363 9.57812C18.8098 9.78776 19.1721 9.89258 19.6232 9.89258C20.0607 9.89258 20.3934 9.81055 20.6213 9.64648C20.8492 9.47786 20.9631 9.25911 20.9631 8.99023ZM27.2381 9.81055C27.6528 9.81055 27.9969 9.68978 28.2703 9.44824C28.5438 9.20671 28.6896 8.9082 28.7078 8.55273H30.2732C30.255 9.01302 30.1115 9.44368 29.8426 9.84473C29.5737 10.2412 29.2091 10.5557 28.7488 10.7881C28.2885 11.0205 27.7918 11.1367 27.2586 11.1367C26.2241 11.1367 25.4038 10.8018 24.7977 10.1318C24.1915 9.46191 23.8885 8.53678 23.8885 7.35645V7.18555C23.8885 6.0599 24.1893 5.15983 24.7908 4.48535C25.3924 3.80632 26.2127 3.4668 27.2518 3.4668C28.1313 3.4668 28.8468 3.72428 29.3982 4.23926C29.9542 4.74967 30.2459 5.42188 30.2732 6.25586H28.7078C28.6896 5.83203 28.5438 5.4834 28.2703 5.20996C28.0014 4.93652 27.6574 4.7998 27.2381 4.7998C26.7003 4.7998 26.2856 4.99577 25.9939 5.3877C25.7023 5.77507 25.5542 6.36523 25.5496 7.1582V7.4248C25.5496 8.22689 25.6932 8.82617 25.9803 9.22266C26.2719 9.61458 26.6912 9.81055 27.2381 9.81055ZM35.5502 5.12109C35.3314 5.08464 35.1059 5.06641 34.8734 5.06641C34.1124 5.06641 33.5997 5.35807 33.3354 5.94141V11H31.6742V3.60352H33.2602L33.3012 4.43066C33.7022 3.78809 34.2582 3.4668 34.9691 3.4668C35.2061 3.4668 35.4021 3.4987 35.557 3.5625L35.5502 5.12109ZM38.5166 11H36.8555V3.60352H38.5166V11ZM36.7529 1.68262C36.7529 1.42741 36.8327 1.21549 36.9922 1.04688C37.1562 0.878255 37.3887 0.793945 37.6895 0.793945C37.9902 0.793945 38.2227 0.878255 38.3867 1.04688C38.5508 1.21549 38.6328 1.42741 38.6328 1.68262C38.6328 1.93327 38.5508 2.1429 38.3867 2.31152C38.2227 2.47559 37.9902 2.55762 37.6895 2.55762C37.3887 2.55762 37.1562 2.47559 36.9922 2.31152C36.8327 2.1429 36.7529 1.93327 36.7529 1.68262ZM46.9586 7.37695C46.9586 8.52083 46.6988 9.43457 46.1793 10.1182C45.6598 10.7972 44.9625 11.1367 44.0875 11.1367C43.2763 11.1367 42.6269 10.8701 42.1393 10.3369V13.8438H40.4781V3.60352H42.0094L42.0777 4.35547C42.5654 3.76302 43.2285 3.4668 44.067 3.4668C44.9693 3.4668 45.6757 3.80404 46.1861 4.47852C46.7011 5.14844 46.9586 6.0804 46.9586 7.27441V7.37695ZM45.3043 7.2334C45.3043 6.49512 45.1562 5.90951 44.86 5.47656C44.5683 5.04362 44.149 4.82715 43.6021 4.82715C42.9231 4.82715 42.4355 5.10742 42.1393 5.66797V8.94922C42.44 9.52344 42.9322 9.81055 43.6158 9.81055C44.1445 9.81055 44.5569 9.59863 44.8531 9.1748C45.1539 8.74642 45.3043 8.09928 45.3043 7.2334ZM50.6018 1.80566V3.60352H51.9074V4.83398H50.6018V8.96289C50.6018 9.24544 50.6564 9.45052 50.7658 9.57812C50.8798 9.70117 51.0803 9.7627 51.3674 9.7627C51.5588 9.7627 51.7525 9.73991 51.9484 9.69434V10.9795C51.5702 11.0843 51.2056 11.1367 50.8547 11.1367C49.5786 11.1367 48.9406 10.4326 48.9406 9.02441V4.83398H47.7238V3.60352H48.9406V1.80566H50.6018ZM55.0994 11H53.4383V3.60352H55.0994V11ZM53.3357 1.68262C53.3357 1.42741 53.4155 1.21549 53.575 1.04688C53.7391 0.878255 53.9715 0.793945 54.2723 0.793945C54.573 0.793945 54.8055 0.878255 54.9695 1.04688C55.1336 1.21549 55.2156 1.42741 55.2156 1.68262C55.2156 1.93327 55.1336 2.1429 54.9695 2.31152C54.8055 2.47559 54.573 2.55762 54.2723 2.55762C53.9715 2.55762 53.7391 2.47559 53.575 2.31152C53.4155 2.1429 53.3357 1.93327 53.3357 1.68262ZM56.7533 7.2334C56.7533 6.50879 56.8969 5.8571 57.184 5.27832C57.4711 4.69499 57.8744 4.24837 58.3939 3.93848C58.9135 3.62402 59.5105 3.4668 60.185 3.4668C61.183 3.4668 61.9919 3.78809 62.6117 4.43066C63.2361 5.07324 63.5733 5.92546 63.6234 6.9873L63.6303 7.37695C63.6303 8.10612 63.489 8.75781 63.2064 9.33203C62.9284 9.90625 62.5274 10.3506 62.0033 10.665C61.4838 10.9795 60.8822 11.1367 60.1986 11.1367C59.155 11.1367 58.3187 10.7904 57.6898 10.0977C57.0655 9.40039 56.7533 8.47298 56.7533 7.31543V7.2334ZM58.4145 7.37695C58.4145 8.13802 58.5717 8.73503 58.8861 9.16797C59.2006 9.59635 59.6381 9.81055 60.1986 9.81055C60.7592 9.81055 61.1944 9.5918 61.5043 9.1543C61.8187 8.7168 61.976 8.0765 61.976 7.2334C61.976 6.486 61.8142 5.89355 61.4906 5.45605C61.1716 5.01855 60.7364 4.7998 60.185 4.7998C59.6426 4.7998 59.212 5.01628 58.893 5.44922C58.574 5.8776 58.4145 6.52018 58.4145 7.37695ZM66.7266 3.60352L66.7744 4.45801C67.3213 3.7972 68.0391 3.4668 68.9277 3.4668C70.4681 3.4668 71.252 4.34863 71.2793 6.1123V11H69.6182V6.20801C69.6182 5.73861 69.5156 5.39225 69.3105 5.16895C69.11 4.94108 68.7796 4.82715 68.3193 4.82715C67.6494 4.82715 67.1504 5.13021 66.8223 5.73633V11H65.1611V3.60352H66.7266ZM74.1295 9.25C74.4394 9.25 74.6786 9.33887 74.8473 9.5166C75.0159 9.68978 75.1002 9.90853 75.1002 10.1729C75.1002 10.4326 75.0159 10.6491 74.8473 10.8223C74.6786 10.9909 74.4394 11.0752 74.1295 11.0752C73.8333 11.0752 73.5986 10.9909 73.4254 10.8223C73.2522 10.6536 73.1656 10.4372 73.1656 10.1729C73.1656 9.90853 73.2499 9.68978 73.4186 9.5166C73.5872 9.33887 73.8242 9.25 74.1295 9.25ZM74.1295 3.44629C74.4394 3.44629 74.6786 3.53516 74.8473 3.71289C75.0159 3.88607 75.1002 4.10482 75.1002 4.36914C75.1002 4.62891 75.0159 4.84538 74.8473 5.01855C74.6786 5.18717 74.4394 5.27148 74.1295 5.27148C73.8333 5.27148 73.5986 5.18717 73.4254 5.01855C73.2522 4.84993 73.1656 4.63346 73.1656 4.36914C73.1656 4.10482 73.2499 3.88607 73.4186 3.71289C73.5872 3.53516 73.8242 3.44629 74.1295 3.44629Z" fill="#023A78"/>
<path d="M0.0117188 11V1.04688H2.95117C3.83073 1.04688 4.61003 1.24284 5.28906 1.63477C5.97266 2.02669 6.5013 2.58268 6.875 3.30273C7.2487 4.02279 7.43555 4.84766 7.43555 5.77734V6.27637C7.43555 7.21973 7.24642 8.04915 6.86816 8.76465C6.49447 9.48014 5.95898 10.0316 5.26172 10.4189C4.56901 10.8063 3.77376 11 2.87598 11H0.0117188ZM1.74121 2.44141V9.61914H2.86914C3.77604 9.61914 4.47103 9.33659 4.9541 8.77148C5.44173 8.20182 5.6901 7.38607 5.69922 6.32422V5.77051C5.69922 4.69043 5.46452 3.86556 4.99512 3.2959C4.52572 2.72624 3.8444 2.44141 2.95117 2.44141H1.74121ZM12.4049 11.1367C11.3521 11.1367 10.4977 10.8063 9.84141 10.1455C9.18971 9.48014 8.86387 8.59603 8.86387 7.49316V7.28809C8.86387 6.5498 9.00514 5.89128 9.28769 5.3125C9.5748 4.72917 9.97585 4.27572 10.4908 3.95215C11.0058 3.62858 11.58 3.4668 12.2135 3.4668C13.2206 3.4668 13.9977 3.78809 14.5445 4.43066C15.096 5.07324 15.3717 5.98242 15.3717 7.1582V7.82812H10.5387C10.5888 8.4388 10.7916 8.92188 11.1471 9.27734C11.5071 9.63281 11.9583 9.81055 12.5006 9.81055C13.2617 9.81055 13.8814 9.50293 14.36 8.8877L15.2555 9.74219C14.9592 10.1842 14.5628 10.5283 14.066 10.7744C13.5738 11.016 13.0201 11.1367 12.4049 11.1367ZM12.2066 4.7998C11.7509 4.7998 11.3818 4.95931 11.0992 5.27832C10.8212 5.59733 10.6435 6.04167 10.566 6.61133H13.7311V6.48828C13.6946 5.93229 13.5465 5.51302 13.2867 5.23047C13.027 4.94336 12.6669 4.7998 12.2066 4.7998ZM20.9631 8.99023C20.9631 8.69401 20.84 8.46842 20.5939 8.31348C20.3524 8.15853 19.9491 8.02181 19.384 7.90332C18.8189 7.78483 18.3472 7.63444 17.9689 7.45215C17.1395 7.05111 16.7248 6.47005 16.7248 5.70898C16.7248 5.07096 16.9937 4.53776 17.5314 4.10938C18.0692 3.68099 18.7528 3.4668 19.5822 3.4668C20.4663 3.4668 21.1796 3.68555 21.7219 4.12305C22.2687 4.56055 22.5422 5.12793 22.5422 5.8252H20.8811C20.8811 5.50618 20.7626 5.24186 20.5256 5.03223C20.2886 4.81803 19.9742 4.71094 19.5822 4.71094C19.2176 4.71094 18.9191 4.79525 18.6867 4.96387C18.4589 5.13249 18.3449 5.35807 18.3449 5.64062C18.3449 5.89583 18.452 6.09408 18.6662 6.23535C18.8804 6.37663 19.3133 6.52018 19.965 6.66602C20.6167 6.80729 21.1271 6.97819 21.4963 7.17871C21.87 7.37467 22.1457 7.61165 22.3234 7.88965C22.5057 8.16764 22.5969 8.50488 22.5969 8.90137C22.5969 9.56673 22.3212 10.1068 21.7697 10.5215C21.2183 10.9316 20.496 11.1367 19.6027 11.1367C18.9966 11.1367 18.4566 11.0273 17.9826 10.8086C17.5087 10.5898 17.1395 10.2891 16.8752 9.90625C16.6109 9.52344 16.4787 9.111 16.4787 8.66895H18.092C18.1148 9.06087 18.2629 9.36393 18.5363 9.57812C18.8098 9.78776 19.1721 9.89258 19.6232 9.89258C20.0607 9.89258 20.3934 9.81055 20.6213 9.64648C20.8492 9.47786 20.9631 9.25911 20.9631 8.99023ZM27.2381 9.81055C27.6528 9.81055 27.9969 9.68978 28.2703 9.44824C28.5438 9.20671 28.6896 8.9082 28.7078 8.55273H30.2732C30.255 9.01302 30.1115 9.44368 29.8426 9.84473C29.5737 10.2412 29.2091 10.5557 28.7488 10.7881C28.2885 11.0205 27.7918 11.1367 27.2586 11.1367C26.2241 11.1367 25.4038 10.8018 24.7977 10.1318C24.1915 9.46191 23.8885 8.53678 23.8885 7.35645V7.18555C23.8885 6.0599 24.1893 5.15983 24.7908 4.48535C25.3924 3.80632 26.2127 3.4668 27.2518 3.4668C28.1313 3.4668 28.8468 3.72428 29.3982 4.23926C29.9542 4.74967 30.2459 5.42188 30.2732 6.25586H28.7078C28.6896 5.83203 28.5438 5.4834 28.2703 5.20996C28.0014 4.93652 27.6574 4.7998 27.2381 4.7998C26.7003 4.7998 26.2856 4.99577 25.9939 5.3877C25.7023 5.77507 25.5542 6.36523 25.5496 7.1582V7.4248C25.5496 8.22689 25.6932 8.82617 25.9803 9.22266C26.2719 9.61458 26.6912 9.81055 27.2381 9.81055ZM35.5502 5.12109C35.3314 5.08464 35.1059 5.06641 34.8734 5.06641C34.1124 5.06641 33.5997 5.35807 33.3354 5.94141V11H31.6742V3.60352H33.2602L33.3012 4.43066C33.7022 3.78809 34.2582 3.4668 34.9691 3.4668C35.2061 3.4668 35.4021 3.4987 35.557 3.5625L35.5502 5.12109ZM38.5166 11H36.8555V3.60352H38.5166V11ZM36.7529 1.68262C36.7529 1.42741 36.8327 1.21549 36.9922 1.04688C37.1562 0.878255 37.3887 0.793945 37.6895 0.793945C37.9902 0.793945 38.2227 0.878255 38.3867 1.04688C38.5508 1.21549 38.6328 1.42741 38.6328 1.68262C38.6328 1.93327 38.5508 2.1429 38.3867 2.31152C38.2227 2.47559 37.9902 2.55762 37.6895 2.55762C37.3887 2.55762 37.1562 2.47559 36.9922 2.31152C36.8327 2.1429 36.7529 1.93327 36.7529 1.68262ZM46.9586 7.37695C46.9586 8.52083 46.6988 9.43457 46.1793 10.1182C45.6598 10.7972 44.9625 11.1367 44.0875 11.1367C43.2763 11.1367 42.6269 10.8701 42.1393 10.3369V13.8438H40.4781V3.60352H42.0094L42.0777 4.35547C42.5654 3.76302 43.2285 3.4668 44.067 3.4668C44.9693 3.4668 45.6757 3.80404 46.1861 4.47852C46.7011 5.14844 46.9586 6.0804 46.9586 7.27441V7.37695ZM45.3043 7.2334C45.3043 6.49512 45.1562 5.90951 44.86 5.47656C44.5683 5.04362 44.149 4.82715 43.6021 4.82715C42.9231 4.82715 42.4355 5.10742 42.1393 5.66797V8.94922C42.44 9.52344 42.9322 9.81055 43.6158 9.81055C44.1445 9.81055 44.5569 9.59863 44.8531 9.1748C45.1539 8.74642 45.3043 8.09928 45.3043 7.2334ZM50.6018 1.80566V3.60352H51.9074V4.83398H50.6018V8.96289C50.6018 9.24544 50.6564 9.45052 50.7658 9.57812C50.8798 9.70117 51.0803 9.7627 51.3674 9.7627C51.5588 9.7627 51.7525 9.73991 51.9484 9.69434V10.9795C51.5702 11.0843 51.2056 11.1367 50.8547 11.1367C49.5786 11.1367 48.9406 10.4326 48.9406 9.02441V4.83398H47.7238V3.60352H48.9406V1.80566H50.6018ZM55.0994 11H53.4383V3.60352H55.0994V11ZM53.3357 1.68262C53.3357 1.42741 53.4155 1.21549 53.575 1.04688C53.7391 0.878255 53.9715 0.793945 54.2723 0.793945C54.573 0.793945 54.8055 0.878255 54.9695 1.04688C55.1336 1.21549 55.2156 1.42741 55.2156 1.68262C55.2156 1.93327 55.1336 2.1429 54.9695 2.31152C54.8055 2.47559 54.573 2.55762 54.2723 2.55762C53.9715 2.55762 53.7391 2.47559 53.575 2.31152C53.4155 2.1429 53.3357 1.93327 53.3357 1.68262ZM56.7533 7.2334C56.7533 6.50879 56.8969 5.8571 57.184 5.27832C57.4711 4.69499 57.8744 4.24837 58.3939 3.93848C58.9135 3.62402 59.5105 3.4668 60.185 3.4668C61.183 3.4668 61.9919 3.78809 62.6117 4.43066C63.2361 5.07324 63.5733 5.92546 63.6234 6.9873L63.6303 7.37695C63.6303 8.10612 63.489 8.75781 63.2064 9.33203C62.9284 9.90625 62.5274 10.3506 62.0033 10.665C61.4838 10.9795 60.8822 11.1367 60.1986 11.1367C59.155 11.1367 58.3187 10.7904 57.6898 10.0977C57.0655 9.40039 56.7533 8.47298 56.7533 7.31543V7.2334ZM58.4145 7.37695C58.4145 8.13802 58.5717 8.73503 58.8861 9.16797C59.2006 9.59635 59.6381 9.81055 60.1986 9.81055C60.7592 9.81055 61.1944 9.5918 61.5043 9.1543C61.8187 8.7168 61.976 8.0765 61.976 7.2334C61.976 6.486 61.8142 5.89355 61.4906 5.45605C61.1716 5.01855 60.7364 4.7998 60.185 4.7998C59.6426 4.7998 59.212 5.01628 58.893 5.44922C58.574 5.8776 58.4145 6.52018 58.4145 7.37695ZM66.7266 3.60352L66.7744 4.45801C67.3213 3.7972 68.0391 3.4668 68.9277 3.4668C70.4681 3.4668 71.252 4.34863 71.2793 6.1123V11H69.6182V6.20801C69.6182 5.73861 69.5156 5.39225 69.3105 5.16895C69.11 4.94108 68.7796 4.82715 68.3193 4.82715C67.6494 4.82715 67.1504 5.13021 66.8223 5.73633V11H65.1611V3.60352H66.7266ZM74.1295 9.25C74.4394 9.25 74.6786 9.33887 74.8473 9.5166C75.0159 9.68978 75.1002 9.90853 75.1002 10.1729C75.1002 10.4326 75.0159 10.6491 74.8473 10.8223C74.6786 10.9909 74.4394 11.0752 74.1295 11.0752C73.8333 11.0752 73.5986 10.9909 73.4254 10.8223C73.2522 10.6536 73.1656 10.4372 73.1656 10.1729C73.1656 9.90853 73.2499 9.68978 73.4186 9.5166C73.5872 9.33887 73.8242 9.25 74.1295 9.25ZM74.1295 3.44629C74.4394 3.44629 74.6786 3.53516 74.8473 3.71289C75.0159 3.88607 75.1002 4.10482 75.1002 4.36914C75.1002 4.62891 75.0159 4.84538 74.8473 5.01855C74.6786 5.18717 74.4394 5.27148 74.1295 5.27148C73.8333 5.27148 73.5986 5.18717 73.4254 5.01855C73.2522 4.84993 73.1656 4.63346 73.1656 4.36914C73.1656 4.10482 73.2499 3.88607 73.4186 3.71289C73.5872 3.53516 73.8242 3.44629 74.1295 3.44629Z" fill="url(#paint0_linear)" fill-opacity="0.6"/>
<defs>
<linearGradient id="paint0_linear" x1="37.5" y1="-2" x2="37.5" y2="14" gradientUnits="userSpaceOnUse">
<stop stop-color="white"/>
<stop offset="1" stop-color="white" stop-opacity="0"/>
</linearGradient>
</defs>
</svg>
