<svg width="96" height="76" viewBox="0 0 96 76" fill="none" xmlns="http://www.w3.org/2000/svg">
<path fill-rule="evenodd" clip-rule="evenodd" d="M48 9.5H86C91.225 9.5 95.5 13.775 95.5 19V66.5C95.5 71.725 91.225 76 86 76H10C4.775 76 0.5 71.725 0.5 66.5L0.5475 9.5C0.5475 4.275 4.775 0 10 0H34.5575C37.075 0 39.4975 0.9975 41.3025 2.8025L48 9.5ZM10 61.75C10 64.3625 12.1375 66.5 14.75 66.5H81.25C83.8625 66.5 86 64.3625 86 61.75V23.75C86 21.1375 83.8625 19 81.25 19H14.75C12.1375 19 10 21.1375 10 23.75V61.75Z" fill="#023A78"/>
<path fill-rule="evenodd" clip-rule="evenodd" d="M48 9.5H86C91.225 9.5 95.5 13.775 95.5 19V66.5C95.5 71.725 91.225 76 86 76H10C4.775 76 0.5 71.725 0.5 66.5L0.5475 9.5C0.5475 4.275 4.775 0 10 0H34.5575C37.075 0 39.4975 0.9975 41.3025 2.8025L48 9.5ZM10 61.75C10 64.3625 12.1375 66.5 14.75 66.5H81.25C83.8625 66.5 86 64.3625 86 61.75V23.75C86 21.1375 83.8625 19 81.25 19H14.75C12.1375 19 10 21.1375 10 23.75V61.75Z" fill="url(#paint0_linear)" fill-opacity="0.6"/>
<defs>
<linearGradient id="paint0_linear" x1="48" y1="0" x2="48" y2="76" gradientUnits="userSpaceOnUse">
<stop stop-color="white"/>
<stop offset="1" stop-color="white" stop-opacity="0"/>
</linearGradient>
</defs>
</svg>
