<svg width="40" height="11" viewBox="0 0 40 11" fill="none" xmlns="http://www.w3.org/2000/svg">
<path d="M7.90723 10H6.17773L1.74121 2.93848V10H0.0117188V0.046875H1.74121L6.19141 7.13574V0.046875H7.90723V10ZM14.36 10C14.287 9.85872 14.2232 9.62858 14.1686 9.30957C13.6399 9.861 12.9928 10.1367 12.2271 10.1367C11.4843 10.1367 10.8782 9.9248 10.4088 9.50098C9.93939 9.07715 9.70469 8.55306 9.70469 7.92871C9.70469 7.1403 9.99635 6.53646 10.5797 6.11719C11.1676 5.69336 12.0061 5.48145 13.0953 5.48145H14.1139V4.99609C14.1139 4.61328 14.0068 4.30794 13.7926 4.08008C13.5784 3.84766 13.2525 3.73145 12.815 3.73145C12.4368 3.73145 12.1269 3.82715 11.8854 4.01855C11.6438 4.2054 11.523 4.44466 11.523 4.73633H9.86191C9.86191 4.33073 9.99635 3.95247 10.2652 3.60156C10.5341 3.24609 10.8987 2.9681 11.359 2.76758C11.8238 2.56706 12.3411 2.4668 12.9107 2.4668C13.7766 2.4668 14.4671 2.68555 14.982 3.12305C15.497 3.55599 15.7613 4.16667 15.775 4.95508V8.29102C15.775 8.95638 15.8684 9.4873 16.0553 9.88379V10H14.36ZM12.5348 8.80371C12.8629 8.80371 13.1705 8.72396 13.4576 8.56445C13.7493 8.40495 13.968 8.19076 14.1139 7.92188V6.52734H13.2184C12.6031 6.52734 12.1406 6.63444 11.8307 6.84863C11.5208 7.06283 11.3658 7.36589 11.3658 7.75781C11.3658 8.07682 11.4706 8.33203 11.6803 8.52344C11.8945 8.71029 12.1793 8.80371 12.5348 8.80371ZM19.2268 2.60352L19.2746 3.37598C19.7941 2.76986 20.5051 2.4668 21.4074 2.4668C22.3964 2.4668 23.0731 2.84505 23.4377 3.60156C23.9755 2.84505 24.732 2.4668 25.7072 2.4668C26.523 2.4668 27.1291 2.69238 27.5256 3.14355C27.9266 3.59473 28.1317 4.26009 28.1408 5.13965V10H26.4797V5.1875C26.4797 4.7181 26.3771 4.37402 26.1721 4.15527C25.967 3.93652 25.6275 3.82715 25.1535 3.82715C24.7753 3.82715 24.4654 3.92969 24.2238 4.13477C23.9868 4.33529 23.8205 4.59961 23.7248 4.92773L23.7316 10H22.0705V5.13281C22.0477 4.26237 21.6034 3.82715 20.7375 3.82715C20.0721 3.82715 19.6005 4.09831 19.3225 4.64062V10H17.6613V2.60352H19.2268ZM33.2537 10.1367C32.201 10.1367 31.3465 9.80632 30.6902 9.14551C30.0385 8.48014 29.7127 7.59603 29.7127 6.49316V6.28809C29.7127 5.5498 29.854 4.89128 30.1365 4.3125C30.4236 3.72917 30.8247 3.27572 31.3396 2.95215C31.8546 2.62858 32.4288 2.4668 33.0623 2.4668C34.0695 2.4668 34.8465 2.78809 35.3934 3.43066C35.9448 4.07324 36.2205 4.98242 36.2205 6.1582V6.82812H31.3875C31.4376 7.4388 31.6404 7.92188 31.9959 8.27734C32.3559 8.63281 32.8071 8.81055 33.3494 8.81055C34.1105 8.81055 34.7303 8.50293 35.2088 7.8877L36.1043 8.74219C35.8081 9.18424 35.4116 9.52832 34.9148 9.77441C34.4227 10.016 33.8689 10.1367 33.2537 10.1367ZM33.0555 3.7998C32.5997 3.7998 32.2306 3.95931 31.948 4.27832C31.6701 4.59733 31.4923 5.04167 31.4148 5.61133H34.5799V5.48828C34.5434 4.93229 34.3953 4.51302 34.1355 4.23047C33.8758 3.94336 33.5158 3.7998 33.0555 3.7998ZM38.6674 8.25C38.9773 8.25 39.2165 8.33887 39.3852 8.5166C39.5538 8.68978 39.6381 8.90853 39.6381 9.17285C39.6381 9.43262 39.5538 9.64909 39.3852 9.82227C39.2165 9.99089 38.9773 10.0752 38.6674 10.0752C38.3712 10.0752 38.1365 9.99089 37.9633 9.82227C37.7901 9.65365 37.7035 9.43717 37.7035 9.17285C37.7035 8.90853 37.7878 8.68978 37.9564 8.5166C38.1251 8.33887 38.362 8.25 38.6674 8.25ZM38.6674 2.44629C38.9773 2.44629 39.2165 2.53516 39.3852 2.71289C39.5538 2.88607 39.6381 3.10482 39.6381 3.36914C39.6381 3.62891 39.5538 3.84538 39.3852 4.01855C39.2165 4.18717 38.9773 4.27148 38.6674 4.27148C38.3712 4.27148 38.1365 4.18717 37.9633 4.01855C37.7901 3.84993 37.7035 3.63346 37.7035 3.36914C37.7035 3.10482 37.7878 2.88607 37.9564 2.71289C38.1251 2.53516 38.362 2.44629 38.6674 2.44629Z" fill="#023A78"/>
<path d="M7.90723 10H6.17773L1.74121 2.93848V10H0.0117188V0.046875H1.74121L6.19141 7.13574V0.046875H7.90723V10ZM14.36 10C14.287 9.85872 14.2232 9.62858 14.1686 9.30957C13.6399 9.861 12.9928 10.1367 12.2271 10.1367C11.4843 10.1367 10.8782 9.9248 10.4088 9.50098C9.93939 9.07715 9.70469 8.55306 9.70469 7.92871C9.70469 7.1403 9.99635 6.53646 10.5797 6.11719C11.1676 5.69336 12.0061 5.48145 13.0953 5.48145H14.1139V4.99609C14.1139 4.61328 14.0068 4.30794 13.7926 4.08008C13.5784 3.84766 13.2525 3.73145 12.815 3.73145C12.4368 3.73145 12.1269 3.82715 11.8854 4.01855C11.6438 4.2054 11.523 4.44466 11.523 4.73633H9.86191C9.86191 4.33073 9.99635 3.95247 10.2652 3.60156C10.5341 3.24609 10.8987 2.9681 11.359 2.76758C11.8238 2.56706 12.3411 2.4668 12.9107 2.4668C13.7766 2.4668 14.4671 2.68555 14.982 3.12305C15.497 3.55599 15.7613 4.16667 15.775 4.95508V8.29102C15.775 8.95638 15.8684 9.4873 16.0553 9.88379V10H14.36ZM12.5348 8.80371C12.8629 8.80371 13.1705 8.72396 13.4576 8.56445C13.7493 8.40495 13.968 8.19076 14.1139 7.92188V6.52734H13.2184C12.6031 6.52734 12.1406 6.63444 11.8307 6.84863C11.5208 7.06283 11.3658 7.36589 11.3658 7.75781C11.3658 8.07682 11.4706 8.33203 11.6803 8.52344C11.8945 8.71029 12.1793 8.80371 12.5348 8.80371ZM19.2268 2.60352L19.2746 3.37598C19.7941 2.76986 20.5051 2.4668 21.4074 2.4668C22.3964 2.4668 23.0731 2.84505 23.4377 3.60156C23.9755 2.84505 24.732 2.4668 25.7072 2.4668C26.523 2.4668 27.1291 2.69238 27.5256 3.14355C27.9266 3.59473 28.1317 4.26009 28.1408 5.13965V10H26.4797V5.1875C26.4797 4.7181 26.3771 4.37402 26.1721 4.15527C25.967 3.93652 25.6275 3.82715 25.1535 3.82715C24.7753 3.82715 24.4654 3.92969 24.2238 4.13477C23.9868 4.33529 23.8205 4.59961 23.7248 4.92773L23.7316 10H22.0705V5.13281C22.0477 4.26237 21.6034 3.82715 20.7375 3.82715C20.0721 3.82715 19.6005 4.09831 19.3225 4.64062V10H17.6613V2.60352H19.2268ZM33.2537 10.1367C32.201 10.1367 31.3465 9.80632 30.6902 9.14551C30.0385 8.48014 29.7127 7.59603 29.7127 6.49316V6.28809C29.7127 5.5498 29.854 4.89128 30.1365 4.3125C30.4236 3.72917 30.8247 3.27572 31.3396 2.95215C31.8546 2.62858 32.4288 2.4668 33.0623 2.4668C34.0695 2.4668 34.8465 2.78809 35.3934 3.43066C35.9448 4.07324 36.2205 4.98242 36.2205 6.1582V6.82812H31.3875C31.4376 7.4388 31.6404 7.92188 31.9959 8.27734C32.3559 8.63281 32.8071 8.81055 33.3494 8.81055C34.1105 8.81055 34.7303 8.50293 35.2088 7.8877L36.1043 8.74219C35.8081 9.18424 35.4116 9.52832 34.9148 9.77441C34.4227 10.016 33.8689 10.1367 33.2537 10.1367ZM33.0555 3.7998C32.5997 3.7998 32.2306 3.95931 31.948 4.27832C31.6701 4.59733 31.4923 5.04167 31.4148 5.61133H34.5799V5.48828C34.5434 4.93229 34.3953 4.51302 34.1355 4.23047C33.8758 3.94336 33.5158 3.7998 33.0555 3.7998ZM38.6674 8.25C38.9773 8.25 39.2165 8.33887 39.3852 8.5166C39.5538 8.68978 39.6381 8.90853 39.6381 9.17285C39.6381 9.43262 39.5538 9.64909 39.3852 9.82227C39.2165 9.99089 38.9773 10.0752 38.6674 10.0752C38.3712 10.0752 38.1365 9.99089 37.9633 9.82227C37.7901 9.65365 37.7035 9.43717 37.7035 9.17285C37.7035 8.90853 37.7878 8.68978 37.9564 8.5166C38.1251 8.33887 38.362 8.25 38.6674 8.25ZM38.6674 2.44629C38.9773 2.44629 39.2165 2.53516 39.3852 2.71289C39.5538 2.88607 39.6381 3.10482 39.6381 3.36914C39.6381 3.62891 39.5538 3.84538 39.3852 4.01855C39.2165 4.18717 38.9773 4.27148 38.6674 4.27148C38.3712 4.27148 38.1365 4.18717 37.9633 4.01855C37.7901 3.84993 37.7035 3.63346 37.7035 3.36914C37.7035 3.10482 37.7878 2.88607 37.9564 2.71289C38.1251 2.53516 38.362 2.44629 38.6674 2.44629Z" fill="url(#paint0_linear)" fill-opacity="0.6"/>
<defs>
<linearGradient id="paint0_linear" x1="20" y1="-3" x2="20" y2="13" gradientUnits="userSpaceOnUse">
<stop stop-color="white"/>
<stop offset="1" stop-color="white" stop-opacity="0"/>
</linearGradient>
</defs>
</svg>
