<svg width="73" height="73" viewBox="0 0 73 73" fill="none" xmlns="http://www.w3.org/2000/svg">
<path fill-rule="evenodd" clip-rule="evenodd" d="M36.4998 0.166626C26.4628 0.166626 18.3332 8.29621 18.3332 18.3333C18.3332 28.3704 26.4628 36.5 36.4998 36.5C46.5369 36.5 54.6665 28.3704 54.6665 18.3333C54.6665 8.29621 46.5369 0.166626 36.4998 0.166626ZM46.037 18.3334C46.037 13.065 41.7678 8.79588 36.4995 8.79588C31.2312 8.79588 26.962 13.065 26.962 18.3334C26.962 23.6017 31.2312 27.8709 36.4995 27.8709C41.7678 27.8709 46.037 23.6017 46.037 18.3334ZM64.2037 59.2084C64.2037 56.3017 49.9882 49.6709 36.4995 49.6709C23.0107 49.6709 8.79532 56.3017 8.79532 59.2084V64.2042H64.2037V59.2084ZM0.166504 59.2083C0.166504 47.1275 24.3736 41.0416 36.4998 41.0416C48.6261 41.0416 72.8332 47.1275 72.8332 59.2083V68.2916C72.8332 70.7895 70.7894 72.8333 68.2915 72.8333H4.70817C2.21025 72.8333 0.166504 70.7895 0.166504 68.2916V59.2083Z" fill="#023A78"/>
</svg>
